<svg width="24" height="28" viewBox="0 0 24 28" fill="none" xmlns="http://www.w3.org/2000/svg">
<rect width="24" height="28" fill="black"/>
<path d="M16.4 3.29413L15.9333 3.77452M8 3.29413L8.46667 3.77452M16.4 10.0196L15.9333 9.53923M8 10.0196L8.46667 9.53923M10.8 10.9804H13.6M11.2667 12.4216H13.1333M12.2 3.77452C10.3333 3.77452 9.3776 4.71129 9.4 6.17648C9.41073 6.89082 9.63333 7.37746 10.1 7.85785C10.5667 8.33825 10.8 8.57844 10.8 9.53923H13.6C13.6 8.57844 13.8333 8.33825 14.3 7.85785C14.7667 7.37746 14.9893 6.89082 15 6.17648C15.0224 4.71129 14.0667 3.77452 12.2 3.77452Z" stroke="white" stroke-width="0.5" stroke-linecap="round" stroke-linejoin="round"/>
<path d="M9.6697 14.0329C8.1042 13.4648 5.91605 13.1865 2.98653 13.1766C2.71024 13.1738 2.43938 13.235 2.21006 13.3522C2.02183 13.4489 1.86775 13.5792 1.76137 13.7318C1.65499 13.8844 1.59956 14.0546 1.59998 14.2273V23.6502C1.59998 24.2872 2.19619 24.7678 2.98653 24.7678C6.06597 24.7678 9.15495 24.9865 11.0051 26.3157C11.0304 26.334 11.0622 26.3462 11.0966 26.3509C11.131 26.3555 11.1664 26.3524 11.1984 26.3418C11.2304 26.3313 11.2577 26.3139 11.2768 26.2917C11.2959 26.2695 11.306 26.2435 11.3058 26.2169V15.1139C11.3059 15.039 11.2848 14.9649 11.244 14.8968C11.2032 14.8286 11.1436 14.7678 11.0693 14.7187C10.6454 14.4433 10.1747 14.2126 9.6697 14.0329ZM21.7882 13.3512C21.5587 13.2343 21.2878 13.1734 21.0117 13.1766C18.0822 13.1865 15.894 13.4635 14.3285 14.0329C13.8236 14.2123 13.3527 14.4425 12.9285 14.7173C12.8543 14.7666 12.7949 14.8274 12.7542 14.8955C12.7134 14.9637 12.6924 15.0377 12.6924 15.1126V26.2163C12.6924 26.2418 12.7022 26.2667 12.7208 26.2879C12.7393 26.3092 12.7657 26.3258 12.7966 26.3357C12.8276 26.3456 12.8616 26.3483 12.8946 26.3435C12.9275 26.3387 12.9579 26.3267 12.9818 26.3088C14.0941 25.469 16.0461 24.7668 21.0134 24.7671C21.3812 24.7671 21.7338 24.6561 21.9939 24.4584C22.2539 24.2608 22.4 23.9927 22.4 23.7131V14.2276C22.4005 14.0546 22.3449 13.8841 22.2382 13.7312C22.1315 13.5784 21.977 13.4478 21.7882 13.3512Z" fill="white"/>
</svg>
