<svg width="396" height="113" viewBox="0 0 396 113" fill="none" xmlns="http://www.w3.org/2000/svg">
<g clip-path="url(#clip0_177_2)">
<g clip-path="url(#clip1_177_2)">
<g clip-path="url(#clip2_177_2)">
<g clip-path="url(#clip3_177_2)">
<g clip-path="url(#clip4_177_2)">
<path d="M394.594 24.179C392.735 12.477 387.435 9.224 387.435 9.224C371.165 -2.828 350.86 -0.231 332.619 1.501C300.414 1.572 268.339 4.146 236.208 5.527C168.767 5.737 100.749 2.274 33.643 10.816C27.339 13.437 -6.53999 11.331 1.12101 25.677C3.12901 31.645 10.456 38.268 10.232 43.744C11.236 44.704 12.631 42.504 13.226 43.885C15.309 47.606 18.711 45.851 21.501 48.051C17.614 53.925 20.403 58.816 23.062 63.942C18.377 65.276 12.371 64.644 9.67501 69.067C9.39601 72.273 7.89001 71.665 6.23501 71.524C5.02601 71.431 2.59001 71.782 2.99901 72.788C4.39401 76.228 -1.59399 78.218 2.16201 81.588C-0.421987 85.239 3.94801 88.398 3.35301 92.353C3.27801 93.149 3.68701 93.828 4.33801 94.015C7.22001 95.021 3.01801 96.987 3.46401 99.117C33.029 113.674 65.104 103.61 95.394 110.304C103.259 105.623 97.346 111.965 100.489 110.982C102.943 109.836 104.728 114.587 107.499 111.895C107.927 111.123 107.276 109.297 108.8 109.648C109.6 109.836 110.307 109.789 110.418 108.712C110.586 107.098 109.117 108.104 108.726 107.261C112.947 103.002 111.906 113.136 115.866 112.714C115.68 111.474 114.528 109.695 116.889 109.929C119.232 108.151 119.306 106.676 121.389 110.678C121.463 111.544 121.835 112.153 122.43 112.574C128.938 108.221 135.409 114.119 142.233 112.153C146.417 110 150.433 113.323 154.672 112.504C156.16 111.848 157.666 110.678 159.098 112.644C176.632 113.065 195.319 111.31 211.943 112.714C256.364 110.093 303.835 113.791 350.674 110.327C361.719 108.993 373.192 107.098 383.958 105.576C383.958 105.576 392.679 101.41 392.679 82.688C392.679 63.966 394.538 66.305 394.817 51.397C395.096 36.489 396.398 35.881 394.538 24.179H394.594Z" fill="#001F3F"/>
<g clip-path="url(#clip5_177_2)">
<path d="M86.2096 52.0859V54.629H61.0325L86.9725 28.8586H58.3199V83.1121H91.2111V85.6552H55.7767V26.3154H93.1608L67.2208 52.0859H86.2096ZM110.878 28.8586V26.3154H143.345V60.1391C143.345 69.1814 141.791 75.8331 138.683 80.0943C135.575 84.3667 130.545 86.503 123.594 86.503C116.642 86.503 111.613 84.3667 108.504 80.0943C105.396 75.8331 103.842 69.1814 103.842 60.1391V26.3154H106.385V60.1391C106.385 64.8298 106.781 68.7688 107.572 71.9562C108.363 75.1549 109.55 77.602 111.132 79.2974C112.715 80.9928 114.495 82.1909 116.473 82.8917C118.451 83.6038 120.824 83.9598 123.594 83.9598C126.363 83.9598 128.736 83.6038 130.714 82.8917C132.692 82.1909 134.473 80.9928 136.055 79.2974C137.637 77.602 138.824 75.1549 139.615 71.9562C140.407 68.7688 140.802 64.8298 140.802 60.1391V28.8586H110.878ZM165.979 85.6552V83.1121H189.376L179.119 54.9681L183.866 52.2554C187.765 50.1079 189.715 46.6888 189.715 41.9981C189.715 33.2384 183.047 28.8586 169.709 28.8586H161.91V85.6552H159.367V26.3154H169.709C177.169 26.3154 182.787 27.6831 186.562 30.4184C190.359 33.1649 192.258 37.0249 192.258 41.9981C192.258 47.6495 189.885 51.8033 185.138 54.4595L182.255 56.0701L193.021 85.6552H165.979ZM236.407 52.0859V54.629H211.23L237.17 28.8586H208.517V83.1121H241.409V85.6552H205.974V26.3154H243.358L217.418 52.0859H236.407ZM254.802 26.3154H257.346V85.6552H254.802V26.3154ZM288.541 26.3154H292.187L263.703 54.629L294.899 85.6552H291.254L260.058 54.629L288.541 26.3154ZM304.902 85.6552V83.1121H336.098L318.127 33.6905L299.223 85.6552H296.51L318.127 26.2307L339.743 85.6552H304.902Z" fill="white"/>
</g>
</g>
</g>
</g>
</g>
</g>
<defs>
<clipPath id="clip0_177_2">
<rect width="395.52" height="112.734" fill="white"/>
</clipPath>
<clipPath id="clip1_177_2">
<rect width="395.52" height="112.734" fill="white"/>
</clipPath>
<clipPath id="clip2_177_2">
<rect width="395.52" height="112.734" fill="white"/>
</clipPath>
<clipPath id="clip3_177_2">
<rect width="395.52" height="112.734" fill="white"/>
</clipPath>
<clipPath id="clip4_177_2">
<rect width="395.52" height="112.734" fill="white"/>
</clipPath>
<clipPath id="clip5_177_2">
<rect width="283.983" height="60.2723" fill="white" transform="translate(55.7683 26.2307)"/>
</clipPath>
</defs>
</svg>
